<svg xmlns="http://www.w3.org/2000/svg" viewBox="0 0 64 64" role="img" aria-label="SandeepFitness icon">
  <defs>
    <linearGradient id="g" x1="8" y1="6" x2="58" y2="60" gradientUnits="userSpaceOnUse">
      <stop stop-color="#ff3d6e"/>
      <stop offset="1" stop-color="#ffb000"/>
    </linearGradient>
  </defs>
  <rect width="64" height="64" rx="18" fill="#131216"/>
  <path d="M14 37c6 7 13 11 22 11 7 0 12-3 14-8 2-6-2-11-10-12l-9-1c-4 0-5-2-5-4 0-3 3-5 8-5 5 0 9 2 13 6l5-8c-5-5-11-8-19-8-10 0-18 6-18 15 0 8 5 13 15 14l8 1c3 0 5 2 5 4 0 3-3 5-8 5-6 0-11-3-16-8l-5 8Z" fill="url(#g)"/>
  <path d="M12 18h40" stroke="#f7f3ec" stroke-width="5" stroke-linecap="round" opacity=".92"/>
</svg>
